0
SECTION
2
HEADER
9
$INSUNITS
70
4
9
$ACADVER
1
AC1014
9
$HANDSEED
5
FFFF
0
ENDSEC
0
SECTION
2
TABLES
0
TABLE
2
VPORT
5
8
100
AcDbSymbolTable
0
ENDTAB
0
TABLE
2
LTYPE
5
5
100
AcDbSymbolTable
0
LTYPE
5
14
100
AcDbSymbolTableRecord
100
AcDbLinetypeTableRecord
2
BYBLOCK
70
0
0
LTYPE
5
15
100
AcDbSymbolTableRecord
100
AcDbLinetypeTableRecord
2
BYLAYER
70
0
0
ENDTAB
0
TABLE
2
LAYER
5
2
100
AcDbSymbolTable
70
2
0
LAYER
5
50
100
AcDbSymbolTableRecord
100
AcDbLayerTableRecord
2
0
70
0
6
CONTINUOUS
0
ENDTAB
0
TABLE
2
STYLE
5
3
100
AcDbSymbolTable
70
1
0
STYLE
5
11
100
AcDbSymbolTableRecord
100
AcDbTextStyleTableRecord
2
STANDARD
70
0
0
ENDTAB
0
TABLE
2
VIEW
5
6
100
AcDbSymbolTable
70
0
0
ENDTAB
0
TABLE
2
UCS
5
7
100
AcDbSymbolTable
70
0
0
ENDTAB
0
TABLE
2
APPID
5
9
100
AcDbSymbolTable
70
2
0
APPID
5
12
100
AcDbSymbolTableRecord
100
AcDbRegAppTableRecord
2
ACAD
70
0
0
ENDTAB
0
TABLE
2
DIMSTYLE
5
A
100
AcDbSymbolTable
70
1
0
ENDTAB
0
TABLE
2
BLOCK_RECORD
5
1
100
AcDbSymbolTable
70
1
0
BLOCK_RECORD
5
1F
100
AcDbSymbolTableRecord
100
AcDbBlockTableRecord
2
*MODEL_SPACE
0
BLOCK_RECORD
5
1B
100
AcDbSymbolTableRecord
100
AcDbBlockTableRecord
2
*PAPER_SPACE
0
ENDTAB
0
ENDSEC
0
SECTION
2
BLOCKS
0
BLOCK
5
20
100
AcDbEntity
100
AcDbBlockBegin
2
*MODEL_SPACE
0
ENDBLK
5
21
100
AcDbEntity
100
AcDbBlockEnd
0
BLOCK
5
1C
100
AcDbEntity
100
AcDbBlockBegin
2
*PAPER_SPACE
0
ENDBLK
5
1D
100
AcDbEntity
100
AcDbBlockEnd
0
ENDSEC
0
SECTION
2
ENTITIES
0
ARC
5
100
100
AcDbEntity
8
0
100
AcDbCircle
10
-81.765000000000015
20
65.104999999999961
30
0
40
2.9999999999999716
210
0
220
0
230
1
100
AcDbArc
50
-90.000000000000313
51
0
0
LINE
5
101
100
AcDbEntity
8
0
100
AcDbLine
10
-78.765000000000043
20
65.10499999999999
30
0
11
-78.765000000000029
21
84.104999999999976
31
0
0
ARC
5
102
100
AcDbEntity
8
0
100
AcDbCircle
10
-81.765000000000043
20
84.104999999999976
30
0
40
3.000000000000016
210
0
220
0
230
1
100
AcDbArc
50
0
51
89.99999999999973
0
LINE
5
103
100
AcDbEntity
8
0
100
AcDbLine
10
-81.765000000000029
20
87.10499999999999
30
0
11
-103.93225981880279
21
87.104999999999976
31
0
0
ARC
5
104
100
AcDbEntity
8
0
100
AcDbCircle
10
-103.93225981880279
20
90.10499999999999
30
0
40
3.0000000000000071
210
0
220
0
230
1
100
AcDbArc
50
180
51
270
0
LINE
5
105
100
AcDbEntity
8
0
100
AcDbLine
10
-106.93225981880281
20
90.10499999999999
30
0
11
-106.93225981880278
21
96.335000000000008
31
0
0
ARC
5
106
100
AcDbEntity
8
0
100
AcDbCircle
10
-109.93225981880285
20
96.33499999999998
30
0
40
3.0000000000000604
210
0
220
-0
230
1
100
AcDbArc
50
0
51
89.99999999999919
0
LINE
5
107
100
AcDbEntity
8
0
100
AcDbLine
10
-109.93225981880281
20
99.335000000000022
30
0
11
-126.40327887667736
21
99.335000000000008
31
0
0
ARC
5
108
100
AcDbEntity
8
0
100
AcDbCircle
10
-126.40327887667736
20
102.33500000000001
30
0
40
2.9999999999999978
210
0
220
0
230
1
100
AcDbArc
50
249.99999999999878
51
270
0
LINE
5
109
100
AcDbEntity
8
0
100
AcDbLine
10
-127.42933930665443
20
99.515922137642306
30
0
11
-134.51191942669735
21
102.09377048314363
31
0
0
ARC
5
110
100
AcDbEntity
8
0
100
AcDbCircle
10
-135.88
20
98.335000000000008
30
0
40
3.9999999999999805
210
0
220
-0
230
1
100
AcDbArc
50
70.000000000000298
51
269.9999999999996
0
LINE
5
111
100
AcDbEntity
8
0
100
AcDbLine
10
-135.88000000000002
20
94.335000000000008
30
0
11
-131.88000000000002
21
94.335000000000008
31
0
0
ARC
5
112
100
AcDbEntity
8
0
100
AcDbCircle
10
-131.88000000000002
20
91.334999999999994
30
0
40
3.0000000000000071
210
0
220
-0
230
1
100
AcDbArc
50
0
51
90
0
ARC
5
113
100
AcDbEntity
8
0
100
AcDbCircle
10
-131.88000000000002
20
79.935000000000031
30
0
40
2.9999999999999982
210
-0
220
0
230
1
100
AcDbArc
50
-89.999999999999503
51
0
0
LINE
5
114
100
AcDbEntity
8
0
100
AcDbLine
10
-131.88
20
76.935000000000031
30
0
11
-135.88
21
76.935000000000016
31
0
0
ARC
5
115
100
AcDbEntity
8
0
100
AcDbCircle
10
-135.88
20
72.935000000000002
30
0
40
4.0000000000000036
210
0
220
-0
230
1
100
AcDbArc
50
90
51
290.00000000000006
0
LINE
5
116
100
AcDbEntity
8
0
100
AcDbLine
10
-134.51191942669732
20
69.176229516856381
30
0
11
-127.42933930665386
21
71.754077862357732
31
0
0
ARC
5
117
100
AcDbEntity
8
0
100
AcDbCircle
10
-126.40327887667684
20
68.935000000000016
30
0
40
2.9999999999999982
210
0
220
0
230
1
100
AcDbArc
50
90.00000000000081
51
110.00000000000036
0
LINE
5
118
100
AcDbEntity
8
0
100
AcDbLine
10
-126.40327887667688
20
71.935000000000016
30
0
11
-123.19799999999998
21
71.935000000000045
31
0
0
ARC
5
119
100
AcDbEntity
8
0
100
AcDbCircle
10
-123.19800000000001
20
74.935000000000059
30
0
40
3.0000000000000071
210
0
220
0
230
1
100
AcDbArc
50
270.00000000000051
51
360
0
LINE
5
120
100
AcDbEntity
8
0
100
AcDbLine
10
-120.19800000000001
20
74.935000000000045
30
0
11
-120.19800000000001
21
75.105000000000004
31
0
0
ARC
5
121
100
AcDbEntity
8
0
100
AcDbCircle
10
-117.19799999999999
20
75.105000000000004
30
0
40
2.9999999999999982
210
0
220
-0
230
1
100
AcDbArc
50
90
51
180
0
LINE
5
122
100
AcDbEntity
8
0
100
AcDbLine
10
-117.19799999999999
20
78.105000000000004
30
0
11
-112.39800000000002
21
78.105000000000004
31
0
0
ARC
5
123
100
AcDbEntity
8
0
100
AcDbCircle
10
-112.39800000000002
20
75.105000000000004
30
0
40
3.0000000000000071
210
0
220
-0
230
1
100
AcDbArc
50
0
51
90
0
LINE
5
124
100
AcDbEntity
8
0
100
AcDbLine
10
-109.39800000000002
20
75.105000000000018
30
0
11
-109.39799999999998
21
65.10499999999999
31
0
0
ARC
5
125
100
AcDbEntity
8
0
100
AcDbCircle
10
-106.39799999999997
20
65.105000000000004
30
0
40
3.0000000000000071
210
0
220
0
230
1
100
AcDbArc
50
180
51
270
0
LINE
5
126
100
AcDbEntity
8
0
100
AcDbLine
10
-106.39799999999997
20
62.104999999999997
30
0
11
-81.765000000000029
21
62.104999999999997
31
0
0
ARC
5
127
100
AcDbEntity
8
0
100
AcDbCircle
10
-129.88000000000002
20
79.935000000000045
30
0
40
1.0000000000000142
210
0
220
0
230
1
100
AcDbArc
50
0
51
90
0
ARC
5
128
100
AcDbEntity
8
0
100
AcDbCircle
10
-129.88000000000002
20
91.334999999999994
30
0
40
0.99999999999999645
210
0
220
0
230
1
100
AcDbArc
50
-90
51
0
0
LINE
5
129
100
AcDbEntity
8
0
100
AcDbLine
10
-129.88000000000002
20
80.935000000000045
30
0
11
-139.87999999999997
21
80.935000000000059
31
0
0
LINE
5
130
100
AcDbEntity
8
0
100
AcDbLine
10
-139.88000000000002
20
90.33499999999998
30
0
11
-129.88000000000002
21
90.335000000000008
31
0
0
ARC
5
131
100
AcDbEntity
8
0
100
AcDbCircle
10
-139.87999999999997
20
81.935000000000073
30
0
40
1.000000000000032
210
0
220
0
230
1
100
AcDbArc
50
180
51
270
0
ARC
5
132
100
AcDbEntity
8
0
100
AcDbCircle
10
-139.88000000000002
20
89.33499999999998
30
0
40
0.99999999999999645
210
0
220
-0
230
1
100
AcDbArc
50
90
51
180
0
LINE
5
133
100
AcDbEntity
8
0
100
AcDbLine
10
-140.88
20
81.935000000000088
30
0
11
-140.88
21
89.33499999999998
31
0
0
ENDSEC
0
SECTION
2
OBJECTS
0
DICTIONARY
5
C
100
AcDbDictionary
3
ACAD_GROUP
350
D
3
ACAD_MLINESTYLE
350
17
0
DICTIONARY
5
D
100
AcDbDictionary
0
DICTIONARY
5
1A
330
C
100
AcDbDictionary
0
DICTIONARY
5
17
100
AcDbDictionary
0
ENDSEC
0
EOF
